<?xml version="1.0" encoding="utf-8"?>
<!-- Generator: Adobe Illustrator 16.0.0, SVG Export Plug-In . SVG Version: 6.00 Build 0)  -->
<!DOCTYPE svg PUBLIC "-//W3C//DTD SVG 1.1//EN" "http://www.w3.org/Graphics/SVG/1.1/DTD/svg11.dtd">
<svg version="1.1" id="Layer_1" xmlns="http://www.w3.org/2000/svg" xmlns:xlink="http://www.w3.org/1999/xlink" x="0px" y="0px"
	 width="233.979px" height="61.354px" viewBox="0 0 233.979 61.354" enable-background="new 0 0 233.979 61.354"
	 xml:space="preserve">
<path fill="#FFFFFF" d="M113.921,23.969v10.115c0,2.314-0.096,4.604-1.885,6.346c-1.503,1.479-3.865,2.004-5.964,2.004
	c-2.099,0-4.461-0.524-5.963-2.004c-1.79-1.741-1.885-4.031-1.885-6.346V23.969h4.676v9.471c0,2.338,0.167,4.892,3.172,4.892
	c3.007,0,3.174-2.554,3.174-4.892v-9.471H113.921z"/>
<polygon fill="#FFFFFF" points="117.588,23.969 122.264,23.969 130.828,34.967 130.877,34.967 130.877,23.969 135.553,23.969 
	135.553,41.958 130.877,41.958 122.312,30.936 122.264,30.936 122.264,41.958 117.588,41.958 "/>
<polygon fill="#FFFFFF" points="146.201,35.587 146.249,35.587 150.018,23.969 153.74,23.969 157.271,35.587 157.318,35.587 
	160.707,23.969 165.573,23.969 159.823,41.958 155.053,41.958 151.903,31.532 151.855,31.532 148.325,41.958 143.578,41.958 
	138.211,23.969 143.076,23.969 "/>
<path fill="#FFFFFF" d="M200.707,41.958h-5.822l-4.412-6.919h-0.048v6.919h-4.676V23.969h6.989c3.554,0,6.25,1.694,6.25,5.536
	c0,2.481-1.384,4.627-3.937,5.082L200.707,41.958z M190.425,32.034h0.453c1.525,0,3.244-0.287,3.244-2.243s-1.719-2.242-3.244-2.242
	h-0.453V32.034z"/>
<polygon fill="#FFFFFF" points="213.012,23.969 218.81,23.969 212.063,32.486 219.452,41.958 213.395,41.958 207.77,34.156 
	207.723,34.156 207.723,41.958 203.047,41.958 203.047,23.969 207.723,23.969 207.723,31.39 207.77,31.39 "/>
<path fill="#FFFFFF" d="M230.695,28.245c-0.565-0.412-1.473-0.84-2.617-0.84c-0.859,0-2.004,0.5-2.004,1.503
	c0,1.05,1.265,1.455,2.074,1.718l1.193,0.358c2.505,0.739,4.438,2.004,4.438,4.915c0,1.787-0.43,3.625-1.861,4.842
	c-1.406,1.193-2.879,1.694-4.692,1.694c-2.267,0-4.287-0.294-6.571-1.806l2.757-3.397c1.594,1.056,2.136,1.209,3.235,1.242
	c1.098,0.034,2.265-0.549,2.265-1.813c0-1.312-1.835-1.765-2.837-2.051c-2.935-0.836-4.867-1.599-4.867-5.082
	c0-3.65,2.602-6.036,6.202-6.036c1.813,0,4.188,0.324,5.887,1.54L230.695,28.245z"/>
<polygon fill="#FFFFFF" points="172.917,34.896 179.69,34.896 179.69,30.936 172.917,30.936 172.917,27.93 181.771,27.93 
	181.771,23.969 168.241,23.969 168.241,41.958 181.771,41.958 181.771,37.998 172.917,37.998 "/>
<path fill="#FFFFFF" d="M89.106,34.686c-1.304,1.79-3.378,2.851-5.6,2.851c-3.818,0-6.925-3.107-6.925-6.926
	c0-3.819,3.107-6.925,6.925-6.925c2.227,0,4.305,1.068,5.607,2.865l3.808-2.756c-2.188-3.018-5.677-4.812-9.416-4.812
	c-6.411,0-11.627,5.216-11.627,11.627c0,6.41,5.216,11.628,11.627,11.628c6.405,0,11.616-5.204,11.627-11.606H83.506L89.106,34.686z
	"/>
<path fill="#E15828" d="M30.648,61.208c-16.818,0-30.5-13.681-30.5-30.499c0-16.818,13.681-30.5,30.5-30.5s30.5,13.682,30.5,30.5
	C61.147,47.527,47.466,61.208,30.648,61.208 M30.648,2.712c-15.438,0-27.997,12.56-27.997,27.997
	c0,15.436,12.559,27.997,27.997,27.997s27.997-12.561,27.997-27.997C58.645,15.272,46.086,2.712,30.648,2.712"/>
<path fill="#E15828" d="M55.558,28.88C54.665,16.543,44.814,6.692,32.477,5.799l-1.829,2.712l-1.831-2.712
	C16.482,6.692,6.631,16.543,5.737,28.88l2.713,1.829l-2.713,1.829c0.894,12.336,10.745,22.188,23.081,23.08l1.831-2.712l1.829,2.712
	c12.337-0.893,22.188-10.744,23.081-23.08l-2.712-1.829L55.558,28.88z M29.616,49.482c-9.528-0.512-17.234-8.223-17.742-17.75
	c-0.577-10.829,8.068-19.824,18.774-19.824c6.045,0,11.685,2.9,15.222,7.78l-6.157,4.456c-2.107-2.905-5.465-4.633-9.065-4.633
	c-6.174,0-11.197,5.023-11.197,11.198c0,6.174,5.023,11.196,11.197,11.196c3.591,0,6.946-1.715,9.055-4.606l-9.055-6.556h18.8
	C49.429,41.436,40.438,50.064,29.616,49.482"/>
</svg>
