<?xml version="1.0" encoding="utf-8"?>
<!-- Generator: Adobe Illustrator 16.0.0, SVG Export Plug-In . SVG Version: 6.00 Build 0)  -->
<!DOCTYPE svg PUBLIC "-//W3C//DTD SVG 1.1//EN" "http://www.w3.org/Graphics/SVG/1.1/DTD/svg11.dtd">
<svg version="1.1" id="Layer_1" xmlns="http://www.w3.org/2000/svg" xmlns:xlink="http://www.w3.org/1999/xlink" x="0px" y="0px"
	 width="28.635px" height="28.639px" viewBox="0 0 28.635 28.639" enable-background="new 0 0 28.635 28.639" xml:space="preserve">
<path fill="#E15828" d="M26.883,10.466l-7.336-7.335c-0.184-0.182-0.396-0.273-0.645-0.273c-0.25,0-0.463,0.092-0.645,0.273
	s-0.273,0.396-0.273,0.644v3.669h-3.208c-6.811,0-10.989,1.925-12.537,5.773c-0.505,1.279-0.759,2.87-0.759,4.771
	c0,1.586,0.606,3.739,1.82,6.463c0.028,0.066,0.079,0.18,0.149,0.342c0.072,0.164,0.137,0.307,0.193,0.431
	c0.058,0.124,0.12,0.229,0.188,0.315c0.115,0.162,0.248,0.242,0.401,0.242c0.143,0,0.254-0.046,0.336-0.143
	c0.081-0.096,0.122-0.215,0.122-0.357c0-0.087-0.012-0.213-0.037-0.38c-0.022-0.167-0.035-0.28-0.035-0.337
	c-0.047-0.648-0.072-1.236-0.072-1.762c0-0.965,0.085-1.829,0.252-2.594c0.167-0.764,0.398-1.426,0.693-1.983
	c0.298-0.56,0.68-1.042,1.147-1.447s0.973-0.737,1.512-0.997c0.54-0.257,1.175-0.461,1.905-0.607
	c0.73-0.148,1.467-0.251,2.206-0.309c0.74-0.058,1.579-0.085,2.515-0.085h3.208v3.667c0,0.248,0.092,0.463,0.273,0.645
	s0.395,0.273,0.645,0.273c0.248,0,0.461-0.092,0.645-0.273l7.336-7.335c0.182-0.182,0.271-0.396,0.271-0.646
	C27.154,10.863,27.064,10.648,26.883,10.466"/>
</svg>
